<svg xmlns="http://www.w3.org/2000/svg" width="67" height="136" viewBox="0 0 67 136"><g transform="translate(-195 -280)"><text transform="translate(202 317)" font-size="12" font-family="SegoeUI, Segoe UI" letter-spacing="0.075em"><tspan x="0" y="0">CHEST</tspan></text><circle cx="4" cy="4" r="4" transform="translate(249 280)" fill="#505050"/><circle cx="4" cy="4" r="4" transform="translate(249 309)" fill="#505050"/><circle cx="4" cy="4" r="4" transform="translate(249 334)" fill="#505050"/><circle cx="4" cy="4" r="4" transform="translate(249 359)" fill="#505050"/><circle cx="4" cy="4" r="4" transform="translate(249 408)" fill="#505050"/><path d="M8477,2801v128.523" transform="translate(-8224 -2517)" fill="none" stroke="#505050" stroke-width="2"/><path d="M8452.368,2832h-8.463" transform="translate(-8206.905 -2548)" fill="none" stroke="#707070" stroke-linecap="round" stroke-width="2"/><path d="M8452.368,2832h-8.463" transform="translate(-8206.905 -2494)" fill="none" stroke="#707070" stroke-linecap="round" stroke-width="2"/><path d="M8452.368,2832h-8.463" transform="translate(-8206.905 -2469)" fill="none" stroke="#707070" stroke-linecap="round" stroke-width="2"/><path d="M8452.368,2832h-8.463" transform="translate(-8206.905 -2420)" fill="none" stroke="#707070" stroke-linecap="round" stroke-width="2"/><g transform="translate(196 305)" fill="none" stroke="#a3a3a3" stroke-width="1"><rect width="65" height="16" rx="8" stroke="none"/><rect x="-0.5" y="-0.5" width="66" height="17" rx="8.5" fill="none"/></g></g></svg>