<svg xmlns="http://www.w3.org/2000/svg" xmlns:xlink="http://www.w3.org/1999/xlink" width="841.89" height="255.775" viewBox="0 0 841.89 255.775">
  <defs>
    <clipPath id="clip-Artboard_1">
      <rect width="841.89" height="255.775"/>
    </clipPath>
  </defs>
  <g id="Artboard_1" data-name="Artboard 1" clip-path="url(#clip-Artboard_1)">
    <rect width="841.89" height="255.775" fill="#fff"/>
    <g id="Group_231" data-name="Group 231">
      <g id="Group_230" data-name="Group 230">
        <path id="Path_151" data-name="Path 151" d="M110.666,107.907a37.238,37.238,0,0,0-19.7,5.6l-.028-40.517H73.208l.05,72.054c0,.09,0,.18,0,.271a37.412,37.412,0,1,0,37.412-37.412Zm0,57.091a19.7,19.7,0,0,1-19.679-19.675v-.009A19.679,19.679,0,1,1,110.666,165Z" fill="#42a72a"/>
        <path id="Path_152" data-name="Path 152" d="M394.88,145.324v-.012l-.05-72.318H377.1l.028,40.492a37.414,37.414,0,1,0,17.75,31.944h0ZM357.468,165a19.68,19.68,0,1,1,19.679-19.679A19.7,19.7,0,0,1,357.468,165Z" fill="#42a72a"/>
        <path id="Path_153" data-name="Path 153" d="M229.732,182.776l-.025-36.153c.014-.433.025-.868.025-1.3A37.4,37.4,0,1,0,212,177.14l0,5.648ZM192.32,165A19.68,19.68,0,1,1,212,145.319,19.7,19.7,0,0,1,192.32,165Z" fill="#42a72a"/>
        <path id="Path_154" data-name="Path 154" d="M240.368,131.181a43.656,43.656,0,0,0-2.235,12.835c-.009.434-.025.868-.025,1.3V182.73H255.84V145.319a19.68,19.68,0,1,1,39.359,0V182.73h17.733V145.319a37.412,37.412,0,0,0-37.412-37.412,40.177,40.177,0,0,0-10.737,1.564,41.487,41.487,0,0,0-15.227,8.13A35.6,35.6,0,0,0,240.368,131.181Z" fill="#42a72a"/>
        <path id="Path_155" data-name="Path 155" d="M511.779,182.776l-.025-36.153c.015-.433.025-.868.025-1.3a37.4,37.4,0,1,0-17.733,31.821l0,5.648ZM474.367,165a19.68,19.68,0,1,1,19.679-19.679A19.7,19.7,0,0,1,474.367,165Z" fill="#42a72a"/>
        <path id="Path_156" data-name="Path 156" d="M441.7,97.837v-.418l-17.954.013-.016-24.438h-20.3l.076,109.742,20.294-.014-.045-65.006A58.084,58.084,0,0,1,441.7,97.837Z" fill="#42a72a"/>
        <path id="Path_157" data-name="Path 157" d="M627.208,97.837v-.418l-17.954.013-.017-24.438H588.943l.076,109.742,20.294-.014-.045-65.006A58.091,58.091,0,0,1,627.208,97.837Z" fill="#42a72a"/>
        <path id="Path_158" data-name="Path 158" d="M653.225,107.9l-20.294.014.052,74.824,20.294-.014-.052-74.824Z" fill="#42a72a"/>
        <path id="Path_159" data-name="Path 159" d="M643.1,72.987A12.216,12.216,0,1,0,655.32,85.2,12.216,12.216,0,0,0,643.1,72.987Z" fill="#42a72a"/>
        <g id="Group_228" data-name="Group 228">
          <path id="Path_160" data-name="Path 160" d="M746.322,147.86l20.3-.014-.052-74.852h-20.3l.052,74.866Z" fill="#42a72a"/>
          <path id="Path_161" data-name="Path 161" d="M756.46,182.788a12.222,12.222,0,1,0-12.222-12.222,12.222,12.222,0,0,0,12.222,12.222Z" fill="#42a72a"/>
        </g>
        <path id="Path_162" data-name="Path 162" d="M716.469,156.531a19.679,19.679,0,1,1,0-22.46h19.549a37.412,37.412,0,1,0,0,22.46Z" fill="#42a72a"/>
        <g id="Group_229" data-name="Group 229">
          <path id="Path_163" data-name="Path 163" d="M557.945,138.27c14.391,2.651,21.587,9.165,21.587,21.738,0,14.618-12.119,22.722-30.751,22.722-10.907,0-21.435-1.969-28.024-5.226L522.8,161.6a69.613,69.613,0,0,0,24.464,5.075c9.468,0,13.482-1.969,13.482-6.287,0-3.862-3.106-5.756-11.589-7.27l-8.71-1.667c-14.012-2.424-20.828-9.543-20.828-21.586,0-13.557,12.573-22.874,31.886-22.874,9.089,0,18.1,1.667,24.616,4.545l-1.666,15.83c-5.3-2.273-15-4.09-21.965-4.09-9.543,0-14.163,2.272-14.163,6.589,0,3.56,3.181,5.378,11.891,6.968Z" fill="#42a72a"/>
        </g>
      </g>
    </g>
  </g>
</svg>
