<svg xmlns="http://www.w3.org/2000/svg" width="121" height="46" viewBox="0 0 121 46"><g transform="translate(-644 -1378)"><path d="M124.034,66,26.9,65.99a6.906,6.906,0,0,1-6.585-8.968L30.38,24.829A6.885,6.885,0,0,1,36.965,20l97.133.01a6.906,6.906,0,0,1,6.585,8.968L130.619,61.171A6.885,6.885,0,0,1,124.034,66Z" transform="translate(624.001 1358)" fill="#3baa35"/><path d="M4905.646,265.888h-11.291a3.354,3.354,0,1,1,0-6.709h7.937v-7.933a3.354,3.354,0,0,1,6.709,0v11.287A3.354,3.354,0,0,1,4905.646,265.888Z" transform="translate(-2911.005 4684.174) rotate(-45)" fill="#fff"/></g></svg>