<svg xmlns="http://www.w3.org/2000/svg" width="21.904" height="21.904" viewBox="0 0 21.904 21.904"><path d="M38.729,20H36.053a2.683,2.683,0,0,0-2.676,2.676v2.676H29.364a2.683,2.683,0,0,0-2.676,2.676V32.04H22.676A2.683,2.683,0,0,0,20,34.715v4.013A2.683,2.683,0,0,0,22.676,41.4H38.729A2.683,2.683,0,0,0,41.4,38.729V22.676A2.683,2.683,0,0,0,38.729,20ZM26.689,40.067H22.676a1.342,1.342,0,0,1-1.338-1.338V34.715a1.342,1.342,0,0,1,1.338-1.338h4.013Zm6.689,0H28.027V28.027a1.342,1.342,0,0,1,1.338-1.338h4.013Zm6.689-1.338a1.342,1.342,0,0,1-1.338,1.338H34.715V22.676a1.342,1.342,0,0,1,1.338-1.338h2.676a1.342,1.342,0,0,1,1.338,1.338Z" transform="translate(-19.75 -19.75)" fill="#3baa35" stroke="#3baa35" stroke-width="0.5" stroke-dasharray="25"/></svg>