<svg xmlns="http://www.w3.org/2000/svg" width="150" height="23" viewBox="0 0 150 23">
  <g id="bandtastic_final_name" transform="translate(-73.2 -72.5)">
    <path id="Path_3" data-name="Path 3" d="M81.3,79.811a8.345,8.345,0,0,0-4.258,1.173V72.5H73.2V87.666a8.087,8.087,0,1,0,8.1-7.855Zm0,11.961a4.2,4.2,0,0,1-4.258-4.127h0A4.26,4.26,0,1,1,81.3,91.771Z" transform="translate(0)" fill="#3eab37"/>
    <path id="Path_4" data-name="Path 4" d="M336.266,87.644h0V72.5h-3.825v8.483a8.286,8.286,0,0,0-4.258-1.173,7.838,7.838,0,1,0,8.083,7.855h0Zm-8.083,4.126a4.128,4.128,0,1,1,4.258-4.126A4.188,4.188,0,0,1,328.183,91.771Z" transform="translate(-193.664)" fill="#3eab37"/>
    <path id="Path_5" data-name="Path 5" d="M171.066,123.588v-8.1a8.083,8.083,0,1,0-8.083,8.083,7.957,7.957,0,0,0,4.258-1.21v1.21Zm-8.083-3.847a4.258,4.258,0,1,1,4.258-4.258A4.252,4.252,0,0,1,162.983,119.741Z" transform="translate(-64.042 -28.088)" fill="#3eab37"/>
    <path id="Path_6" data-name="Path 6" d="M246.183,107.4a7.957,7.957,0,0,0-4.258,1.21V107.4H238.1v16.166h3.825v-8.083a4.258,4.258,0,0,1,8.515,0v8.083h3.825v-8.083A8.085,8.085,0,0,0,246.183,107.4Z" transform="translate(-129.345 -28.088)" fill="#3eab37"/>
    <path id="Path_7" data-name="Path 7" d="M453.166,123.588v-8.1a8.083,8.083,0,1,0-8.083,8.083,7.957,7.957,0,0,0,4.258-1.21v1.21Zm-8.083-3.847a4.258,4.258,0,1,1,4.258-4.258A4.252,4.252,0,0,1,445.083,119.741Z" transform="translate(-285.358 -28.088)" fill="#3eab37"/>
    <path id="Path_8" data-name="Path 8" d="M411.678,77.695v-.084h-3.89V72.5H403.4l.022,22.978h4.387V81.863A12.474,12.474,0,0,1,411.678,77.695Z" transform="translate(-258.994)" fill="#3eab37"/>
    <path id="Path_9" data-name="Path 9" d="M597.178,77.695v-.084h-3.89V72.5H588.9l.022,22.978h4.387V81.863A12.474,12.474,0,0,1,597.178,77.695Z" transform="translate(-404.492)" fill="#3eab37"/>
    <path id="Path_10" data-name="Path 10" d="M637.287,107.4H632.9l.022,16.166h4.387Z" transform="translate(-439.05 -28.088)" fill="#3eab37"/>
    <path id="Path_11" data-name="Path 11" d="M633.537,72.5a2.637,2.637,0,1,0,2.637,2.637,2.647,2.647,0,0,0-2.637-2.637Z" transform="translate(-437.482)" fill="#3eab37"/>
    <g id="Group_4" data-name="Group 4" transform="translate(217.926 72.5)">
      <path id="Path_12" data-name="Path 12" d="M746.3,88.688h4.387V72.5H746.3Z" transform="translate(-745.867 -72.5)" fill="#3eab37"/>
      <path id="Path_13" data-name="Path 13" d="M746.936,163.174a2.637,2.637,0,1,0-2.637-2.637,2.633,2.633,0,0,0,2.637,2.637Z" transform="translate(-744.299 -140.174)" fill="#3eab37"/>
    </g>
    <path id="Path_14" data-name="Path 14" d="M674.484,117.747a4.255,4.255,0,1,1-3.48-6.7,4.2,4.2,0,0,1,3.48,1.815H678.7a8.083,8.083,0,1,0,0,4.841h-4.215Z" transform="translate(-462.566 -27.931)" fill="#3eab37"/>
    <g id="Group_5" data-name="Group 5" transform="translate(169.457 79.096)">
      <path id="Path_15" data-name="Path 15" d="M527.878,113.186c3.112.584,4.668,1.988,4.668,4.69,0,3.155-2.615,4.906-6.657,4.906a14.888,14.888,0,0,1-6.052-1.124l.432-3.436a15.168,15.168,0,0,0,5.3,1.1c2.053,0,2.918-.432,2.918-1.362,0-.843-.67-1.254-2.507-1.578l-1.88-.367c-3.026-.519-4.5-2.053-4.5-4.668,0-2.939,2.723-4.949,6.894-4.949a14.062,14.062,0,0,1,5.317.973l-.367,3.415a14.105,14.105,0,0,0-4.755-.886c-2.053,0-3.069.5-3.069,1.426,0,.778.692,1.167,2.572,1.513Z" transform="translate(-519.6 -106.4)" fill="#3eab37"/>
    </g>
  </g>
</svg>
