<svg xmlns="http://www.w3.org/2000/svg" width="22" height="22" viewBox="0 0 22 22"><path d="M39.278,22.75h-1.4V21.375a1.375,1.375,0,0,0-2.75,0V22.75h-8.25V21.375a1.375,1.375,0,0,0-2.75,0V22.75h-1.4A2.729,2.729,0,0,0,20,25.473v13.8A2.729,2.729,0,0,0,22.723,42H39.278A2.729,2.729,0,0,0,42,39.278v-13.8A2.729,2.729,0,0,0,39.278,22.75ZM40.35,39.278a1.074,1.074,0,0,1-1.072,1.072H22.723a1.074,1.074,0,0,1-1.073-1.072v-13.8A1.074,1.074,0,0,1,22.723,24.4h1.4v1.1a1.375,1.375,0,0,0,2.75,0V24.4h8.25v1.1a1.375,1.375,0,1,0,2.75,0V24.4h1.4a1.074,1.074,0,0,1,1.072,1.073Z" transform="translate(-20 -20)" fill="#a2a2a2"/></svg>