<svg xmlns="http://www.w3.org/2000/svg" width="285.865" height="44.887" viewBox="0 0 285.865 44.887">
  <g id="bandtastic_final_name" transform="translate(-73.2 -72.5)">
    <path id="Path_3" data-name="Path 3" d="M88.646,86.767a15.622,15.622,0,0,0-8.114,2.289V72.5H73.2v29.6a15.4,15.4,0,1,0,15.446-15.33Zm0,23.343a8.1,8.1,0,0,1-8.114-8.054h0a8.114,8.114,0,1,1,8.114,8.054Z" transform="translate(0)" fill="#3eab37"/>
    <path id="Path_4" data-name="Path 4" d="M350.909,102.057h0V72.5h-7.29V89.057a15.512,15.512,0,0,0-8.114-2.289,15.29,15.29,0,1,0,15.4,15.33h0Zm-15.4,8.053a8.054,8.054,0,1,1,8.114-8.053A8.074,8.074,0,0,1,335.5,110.11Z" transform="translate(-145.445)" fill="#3eab37"/>
    <path id="Path_5" data-name="Path 5" d="M185.709,138.251V122.8a15.4,15.4,0,1,0-15.4,15.4,15.164,15.164,0,0,0,8.114-2.307v2.307Zm-15.4-7.332a8.114,8.114,0,1,1,8.114-8.114A8.1,8.1,0,0,1,170.3,130.919Z" transform="translate(-48.049 -20.863)" fill="#3eab37"/>
    <path id="Path_6" data-name="Path 6" d="M253.5,107.4a15.165,15.165,0,0,0-8.114,2.307V107.4H238.1v30.809h7.29V122.8a8.114,8.114,0,0,1,16.228,0v15.4h7.29V122.8A15.408,15.408,0,0,0,253.5,107.4Z" transform="translate(-97.14 -20.863)" fill="#3eab37"/>
    <path id="Path_7" data-name="Path 7" d="M467.809,138.251V122.8a15.4,15.4,0,1,0-15.4,15.4,15.164,15.164,0,0,0,8.114-2.307v2.307Zm-15.4-7.332a8.114,8.114,0,1,1,8.114-8.114A8.1,8.1,0,0,1,452.4,130.919Z" transform="translate(-214.309 -20.863)" fill="#3eab37"/>
    <path id="Path_8" data-name="Path 8" d="M419.175,82.638v-.164h-7.414V72.5H403.4l.041,44.846H411.8V90.774A24.129,24.129,0,0,1,419.175,82.638Z" transform="translate(-194.498)" fill="#3eab37"/>
    <path id="Path_9" data-name="Path 9" d="M604.675,82.638v-.164h-7.414V72.5H588.9l.041,44.846H597.3V90.774A24.129,24.129,0,0,1,604.675,82.638Z" transform="translate(-303.763)" fill="#3eab37"/>
    <path id="Path_10" data-name="Path 10" d="M641.261,107.4H632.9l.041,30.809H641.3Z" transform="translate(-329.77 -20.863)" fill="#3eab37"/>
    <path id="Path_11" data-name="Path 11" d="M635.925,72.5a5.025,5.025,0,1,0,5.025,5.025,5.045,5.045,0,0,0-5.025-5.025Z" transform="translate(-328.594)" fill="#3eab37"/>
    <g id="Group_4" data-name="Group 4" transform="translate(349.014 72.5)">
      <path id="Path_12" data-name="Path 12" d="M746.3,103.351h8.361V72.5H746.3Z" transform="translate(-745.476 -72.5)" fill="#3eab37"/>
      <path id="Path_13" data-name="Path 13" d="M749.324,167.95a5.025,5.025,0,1,0-5.025-5.025,5.019,5.019,0,0,0,5.025,5.025Z" transform="translate(-744.299 -123.063)" fill="#3eab37"/>
    </g>
    <path id="Path_14" data-name="Path 14" d="M684.977,127.3a8.109,8.109,0,1,1-6.631-12.769,8,8,0,0,1,6.631,3.46h8.032a15.4,15.4,0,1,0,0,9.226h-8.032Z" transform="translate(-347.413 -20.746)" fill="#3eab37"/>
    <g id="Group_5" data-name="Group 5" transform="translate(256.643 86.125)">
      <path id="Path_15" data-name="Path 15" d="M535.375,119.333c5.931,1.112,8.9,3.789,8.9,8.938,0,6.014-4.984,9.35-12.686,9.35a28.373,28.373,0,0,1-11.533-2.142l.824-6.549a28.908,28.908,0,0,0,10.091,2.1c3.913,0,5.56-.824,5.56-2.595,0-1.606-1.277-2.389-4.778-3.007l-3.583-.7c-5.766-.989-8.567-3.913-8.567-8.9,0-5.6,5.19-9.432,13.139-9.432a26.8,26.8,0,0,1,10.133,1.854l-.7,6.508a26.881,26.881,0,0,0-9.062-1.689c-3.913,0-5.849.947-5.849,2.718,0,1.483,1.318,2.224,4.9,2.883Z" transform="translate(-519.6 -106.4)" fill="#3eab37"/>
    </g>
  </g>
</svg>
