<svg xmlns="http://www.w3.org/2000/svg" width="20" height="27" viewBox="0 0 20 27"><g transform="translate(20) rotate(90)" fill="#fff"><path d="M 23.23702049255371 19.00000381469727 L 3.76298999786377 19.00000381469727 C 3.220570087432861 19.00000381469727 2.964770078659058 18.62888526916504 2.879960060119629 18.46933364868164 C 2.795160055160522 18.30977439880371 2.630670070648193 17.89011383056641 2.934139966964722 17.44052505493164 L 12.67115020751953 3.015314340591431 C 12.86011981964111 2.735354423522949 13.16222953796387 2.57479453086853 13.5 2.57479453086853 C 13.83777046203613 2.57479453086853 14.13988018035889 2.735354423522949 14.32884979248047 3.015314340591431 L 24.06586074829102 17.44052505493164 C 24.36932945251465 17.89011383056641 24.20484924316406 18.30976486206055 24.12005043029785 18.46932411193848 C 24.03524017333984 18.62888526916504 23.77943992614746 19.00000381469727 23.23702049255371 19.00000381469727 Z" stroke="none"/><path d="M 13.50000190734863 3.574792861938477 C 13.50000095367432 3.574792861938477 13.50000095367432 3.574792861938477 13.5 3.574794769287109 L 3.762989044189453 17.99999237060547 C 3.762990951538086 17.99999618530273 3.762992858886719 18 3.762979507446289 18.00000381469727 L 23.23699760437012 18.00000381469727 C 23.23699951171875 18.00000190734863 23.23700141906738 17.99999809265137 23.23701095581055 18.00000381469727 L 13.50000953674316 3.574804306030273 C 13.50000762939453 3.574800491333008 13.50000476837158 3.574796676635742 13.50000190734863 3.574792861938477 M 13.5 1.574789047241211 C 14.13061237335205 1.574789047241211 14.7612247467041 1.868474960327148 15.15769958496094 2.455844879150391 L 24.89471054077148 16.88105392456055 C 25.79132080078125 18.20936393737793 24.8396110534668 20.00000381469727 23.23701095581055 20.00000381469727 L 3.762979507446289 20.00000381469727 C 2.160379409790039 20.00000381469727 1.208669662475586 18.20936393737793 2.105289459228516 16.88105392456055 L 11.84230041503906 2.455844879150391 C 12.2387752532959 1.868474960327148 12.86938762664795 1.574789047241211 13.5 1.574789047241211 Z" stroke="none" fill="#3baa35"/></g></svg>