<svg xmlns="http://www.w3.org/2000/svg" width="21" height="21" viewBox="0 0 21 21"><path d="M38.375,20H35.75a2.633,2.633,0,0,0-2.625,2.625V25.25H29.188a2.633,2.633,0,0,0-2.625,2.625v3.938H22.625A2.633,2.633,0,0,0,20,34.438v3.938A2.633,2.633,0,0,0,22.625,41h15.75A2.633,2.633,0,0,0,41,38.375V22.625A2.633,2.633,0,0,0,38.375,20ZM26.563,39.688H22.625a1.316,1.316,0,0,1-1.312-1.312V34.438a1.316,1.316,0,0,1,1.313-1.312h3.938Zm6.563,0h-5.25V27.875a1.316,1.316,0,0,1,1.313-1.312h3.938Zm6.563-1.312a1.316,1.316,0,0,1-1.312,1.313H34.438V22.625a1.316,1.316,0,0,1,1.313-1.312h2.625a1.316,1.316,0,0,1,1.313,1.313Z" transform="translate(-20 -20)" fill="#a2a2a2"/></svg>